# xmcd CD database file
#
# Track frame offsets:
#	150
#	10050
#	23850
#	39225
#	68250
#	78225
#	88575
#	104625
#	118875
#	138225
#	152625
#	165300
#	178050
#	194100
#
# Disc length: 2763 seconds
#
# Revision: 1
# Processed by: cddbd v1.5.1PL2 Copyright (c) Steve Scherf et al.
# Submitted via: freeDBTagger 0.8.2.1
#
DISCID=ab0ac90e
DTITLE=Tom Jones - The Songs Of Tom Jones (Karaoke)
DYEAR=2000
DGENRE=rock
TTITLE0=It's Not Unusual (Karaoke)
TTITLE1=Green Green Grass Of Home (Karaoke)
TTITLE2=Delilah (Karaoke)
TTITLE3=Sexbomb (Karaoke)
TTITLE4=What's New Pussycat (Karaoke)
TTITLE5=Till (Karaoke)
TTITLE6=Detroit City (Karaoke)
TTITLE7=Daughter Of Darkness (Karaoke)
TTITLE8=I'll Never Fall In Love Again (Karaoke)
TTITLE9=With These Hands (Karaoke)
TTITLE10=Help Yourself (Karaoke)
TTITLE11=She's A Lady (Karaoke)
TTITLE12=Baby, It's Cold Outside (Karaoke)
TTITLE13=Mama Told Me Not To Come (Karaoke)
EXTD=
EXTT0=
EXTT1=
EXTT2=
EXTT3=
EXTT4=
EXTT5=
EXTT6=
EXTT7=
EXTT8=
EXTT9=
EXTT10=
EXTT11=
EXTT12=
EXTT13=
PLAYORDER=
